HIERARCHY
ROOT Hips
{
  OFFSET 352.181 89.6817 215.948
  CHANNELS 6 Xposition Yposition Zposition Zrotation Xrotation Yrotation
  JOINT RightUpLeg
  {
    OFFSET -9.28908 -1.54242 -0.003762
    CHANNELS 3 Zrotation Xrotation Yrotation
    JOINT RightLeg
    {
      OFFSET 0.175992 -41.9066 0.16442
      CHANNELS 3 Zrotation Xrotation Yrotation
      JOINT RightFoot
      {
        OFFSET -0.850518 -41.676 1.19357
        CHANNELS 3 Zrotation Xrotation Yrotation
        End Site
        {
          OFFSET 0 -7.69 17.5
        }
      }
    }
  }
  JOINT LeftUpLeg
  {
    OFFSET 9.35911 -1.62184 0.0934226
    CHANNELS 3 Zrotation Xrotation Yrotation
    JOINT LeftLeg
    {
      OFFSET 0.11037 -41.8771 -4.76722e-05
      CHANNELS 3 Zrotation Xrotation Yrotation
      JOINT LeftFoot
      {
        OFFSET 0.784832 -42.2153 -2.4698
        CHANNELS 3 Zrotation Xrotation Yrotation
        End Site
        {
          OFFSET 0 -7.69 17.5
        }
      }
    }
  }
  JOINT Spine
  {
    OFFSET -0.0264112 14.3118 0.141242
    CHANNELS 3 Zrotation Xrotation Yrotation
    JOINT Spine1
    {
      OFFSET -0.0608006 9.71827 0.0702426
      CHANNELS 3 Zrotation Xrotation Yrotation
      JOINT Spine2
      {
        OFFSET 0.040197 10.1251 -0.0199022
        CHANNELS 3 Zrotation Xrotation Yrotation
        JOINT Spine3
        {
          OFFSET -0.018884 9.71791 0.0127475
          CHANNELS 3 Zrotation Xrotation Yrotation
          JOINT Neck
          {
            OFFSET -0.169577 10.3664 -0.0885607
            CHANNELS 3 Zrotation Xrotation Yrotation
            JOINT Head
            {
              OFFSET -0.26372 9.48406 0.127016
              CHANNELS 3 Zrotation Xrotation Yrotation
              End Site
              {
                OFFSET 0 15.95 0
              }
            }
          }
          JOINT RightShoulder
          {
            OFFSET -3.21308 6.8767 -0.0450237
            CHANNELS 3 Zrotation Xrotation Yrotation
            JOINT RightArm
            {
              OFFSET -12.7762 -0.0188046 -0.0629949
              CHANNELS 3 Zrotation Xrotation Yrotation
              JOINT RightForeArm
              {
                OFFSET -26.5383 -0.000218244 -0.103623
                CHANNELS 3 Zrotation Xrotation Yrotation
                JOINT RightHand
                {
                  OFFSET -25.8669 -0.047899 -0.0603739
                  CHANNELS 3 Zrotation Xrotation Yrotation
                  JOINT RightHandThumb1
                  {
                    OFFSET -2.48905 0.190105 3.12053
                    CHANNELS 3 Zrotation Xrotation Yrotation
                    JOINT RightHandThumb2
                    {
                      OFFSET -3.68274 0 0
                      CHANNELS 3 Zrotation Xrotation Yrotation
                      JOINT RightHandThumb3
                      {
                        OFFSET -2.55832 0 0
                        CHANNELS 3 Zrotation Xrotation Yrotation
                        End Site
                        {
                          OFFSET -2.194 0 0
                        }
                      }
                    }
                  }
                  JOINT RightInHandIndex
                  {
                    OFFSET -3.22368 0.508421 1.97842
                    CHANNELS 3 Zrotation Xrotation Yrotation
                    JOINT RightHandIndex1
                    {
                      OFFSET -5.21684 -0.091368 0.999158
                      CHANNELS 3 Zrotation Xrotation Yrotation
                      JOINT RightHandIndex2
                      {
                        OFFSET -3.61937 0 0
                        CHANNELS 3 Zrotation Xrotation Yrotation
                        JOINT RightHandIndex3
                        {
                          OFFSET -2.0521 0 0
                          CHANNELS 3 Zrotation Xrotation Yrotation
                          End Site
                          {
                            OFFSET -1.805 0 0
                          }
                        }
                      }
                    }
                  }
                  JOINT RightInHandMiddle
                  {
                    OFFSET -3.38211 0.517263 0.756737
                    CHANNELS 3 Zrotation Xrotation Yrotation
                    JOINT RightHandMiddle1
                    {
                      OFFSET -5.17411 -0.084 0.313895
                      CHANNELS 3 Zrotation Xrotation Yrotation
                      JOINT RightHandMiddle2
                      {
                        OFFSET -3.94947 0 0
                        CHANNELS 3 Zrotation Xrotation Yrotation
                        JOINT RightHandMiddle3
                        {
                          OFFSET -2.47579 0 0
                          CHANNELS 3 Zrotation Xrotation Yrotation
                          End Site
                          {
                            OFFSET -1.975 0 0
                          }
                        }
                      }
                    }
                  }
                  JOINT RightInHandRing
                  {
                    OFFSET -3.36516 0.537895 -0.128947
                    CHANNELS 3 Zrotation Xrotation Yrotation
                    JOINT RightHandRing1
                    {
                      OFFSET -4.63474 -0.022105 -0.478947
                      CHANNELS 3 Zrotation Xrotation Yrotation
                      JOINT RightHandRing2
                      {
                        OFFSET -3.44238 0 0
                        CHANNELS 3 Zrotation Xrotation Yrotation
                        JOINT RightHandRing3
                        {
                          OFFSET -2.3881 0 0
                          CHANNELS 3 Zrotation Xrotation Yrotation
                          End Site
                          {
                            OFFSET -1.857 0 0
                          }
                        }
                      }
                    }
                  }
                  JOINT RightInHandPinky
                  {
                    OFFSET -3.16105 0.469368 -1.20179
                    CHANNELS 3 Zrotation Xrotation Yrotation
                    JOINT RightHandPinky1
                    {
                      OFFSET -4.14105 -0.022105 -1.09053
                      CHANNELS 3 Zrotation Xrotation Yrotation
                      JOINT RightHandPinky2
                      {
                        OFFSET -2.75653 0 0
                        CHANNELS 3 Zrotation Xrotation Yrotation
                        JOINT RightHandPinky3
                        {
                          OFFSET -1.74189 0 0
                          CHANNELS 3 Zrotation Xrotation Yrotation
                          End Site
                          {
                            OFFSET -1.645 0 0
                          }
                        }
                      }
                    }
                  }
                }
              }
            }
          }
          JOINT LeftShoulder
          {
            OFFSET 3.21013 6.92813 0.031381
            CHANNELS 3 Zrotation Xrotation Yrotation
            JOINT LeftArm
            {
              OFFSET 12.8361 0.00272676 -0.00293476
              CHANNELS 3 Zrotation Xrotation Yrotation
              JOINT LeftForeArm
              {
                OFFSET 26.5005 -0.02636 0.00399578
                CHANNELS 3 Zrotation Xrotation Yrotation
                JOINT LeftHand
                {
                  OFFSET 25.9821 -0.0367196 0.00246136
                  CHANNELS 3 Zrotation Xrotation Yrotation
                  JOINT LeftHandThumb1
                  {
                    OFFSET 2.48905 0.190105 3.12053
                    CHANNELS 3 Zrotation Xrotation Yrotation
                    JOINT LeftHandThumb2
                    {
                      OFFSET 3.68274 0 0
                      CHANNELS 3 Zrotation Xrotation Yrotation
                      JOINT LeftHandThumb3
                      {
                        OFFSET 2.55832 0 0
                        CHANNELS 3 Zrotation Xrotation Yrotation
                        End Site
                        {
                          OFFSET 2.194 0 0
                        }
                      }
                    }
                  }
                  JOINT LeftInHandIndex
                  {
                    OFFSET 3.22368 0.508421 1.97842
                    CHANNELS 3 Zrotation Xrotation Yrotation
                    JOINT LeftHandIndex1
                    {
                      OFFSET 5.21684 -0.091368 0.999158
                      CHANNELS 3 Zrotation Xrotation Yrotation
                      JOINT LeftHandIndex2
                      {
                        OFFSET 3.61937 0 0
                        CHANNELS 3 Zrotation Xrotation Yrotation
                        JOINT LeftHandIndex3
                        {
                          OFFSET 2.0521 0 0
                          CHANNELS 3 Zrotation Xrotation Yrotation
                          End Site
                          {
                            OFFSET 1.805 0 0
                          }
                        }
                      }
                    }
                  }
                  JOINT LeftInHandMiddle
                  {
                    OFFSET 3.38211 0.517263 0.756737
                    CHANNELS 3 Zrotation Xrotation Yrotation
                    JOINT LeftHandMiddle1
                    {
                      OFFSET 5.17411 -0.084 0.313895
                      CHANNELS 3 Zrotation Xrotation Yrotation
                      JOINT LeftHandMiddle2
                      {
                        OFFSET 3.94947 0 0
                        CHANNELS 3 Zrotation Xrotation Yrotation
                        JOINT LeftHandMiddle3
                        {
                          OFFSET 2.47579 0 0
                          CHANNELS 3 Zrotation Xrotation Yrotation
                          End Site
                          {
                            OFFSET 1.975 0 0
                          }
                        }
                      }
                    }
                  }
                  JOINT LeftInHandRing
                  {
                    OFFSET 3.36516 0.537895 -0.128947
                    CHANNELS 3 Zrotation Xrotation Yrotation
                    JOINT LeftHandRing1
                    {
                      OFFSET 4.63474 -0.022105 -0.478947
                      CHANNELS 3 Zrotation Xrotation Yrotation
                      JOINT LeftHandRing2
                      {
                        OFFSET 3.44238 0 0
                        CHANNELS 3 Zrotation Xrotation Yrotation
                        JOINT LeftHandRing3
                        {
                          OFFSET 2.3881 0 0
                          CHANNELS 3 Zrotation Xrotation Yrotation
                          End Site
                          {
                            OFFSET 1.857 0 0
                          }
                        }
                      }
                    }
                  }
                  JOINT LeftInHandPinky
                  {
                    OFFSET 3.16105 0.469368 -1.20179
                    CHANNELS 3 Zrotation Xrotation Yrotation
                    JOINT LeftHandPinky1
                    {
                      OFFSET 4.14105 -0.022105 -1.09053
                      CHANNELS 3 Zrotation Xrotation Yrotation
                      JOINT LeftHandPinky2
                      {
                        OFFSET 2.75653 0 0
                        CHANNELS 3 Zrotation Xrotation Yrotation
                        JOINT LeftHandPinky3
                        {
                          OFFSET 1.74189 0 0
                          CHANNELS 3 Zrotation Xrotation Yrotation
                          End Site
                          {
                            OFFSET 1.645 0 0
                          }
                        }
                      }
                    }
                  }
                }
              }
            }
          }
        }
      }
    }
  }
}
MOTION
Frames: 3
Frame Time: 0.00833333
5.993430428257157701e+02 -4.317201931651816205e-01 -2.775795831846240791e+00 3.423492905949163667e+00 3.184618369838728480e+00 -1.213340221607114700e+01 8.345071832220940067e+00 -8.729459232942643254e+00 5.896939238057600896e+00 -1.957248795697633881e+00 1.265748696285013963e+00 1.885858962989266807e+00 -1.335611369423304273e+00 1.623522885387807646e+00 3.838547650288205215e+00 1.040519209285351643e+01 -3.637248429860363785e+00 7.710546323126948209e+00 -2.530546530393757987e+00 4.327120791173603820e+00 3.340443933849203351e+00 1.815085795379406952e-01 -2.145401932186561833e+00 3.347384910425067250e+00 -1.126989597298478030e+00 -2.219176562315654966e+00 -6.921841339050976316e+00 -2.878165167205489761e-01 -4.414165884297225340e-01 -1.839093875662219935e+00 -4.432247069907931381e-01 -6.896514085666289873e-01 -2.930051548814055273e+00 1.219699801182466403e-01 -3.868721148821524514e-02 5.750801035320651788e-01 -1.144564796825322112e-01 -5.459845942641152750e-01 5.407369741166670352e+00 7.334994831235719381e-01 -4.719539600191876016e-01 9.062502874426334287e+00 4.553147376824721704e+00 4.445300499133541527e-01 -3.141226163273242555e+00 -1.015276811888236352e+01 1.757771213546572175e+00 -8.805855671150892405e+00 -1.810866242351715272e+01 -2.769661102469446945e+01 -1.650442052445565366e+01 -8.204198790792762708e+00 -2.138354398895905284e+00 1.850705655999296262e+00 0.000000000000000000e+00 0.000000000000000000e+00 0.000000000000000000e+00 -3.136933182570774957e-14 -2.212516393919292475e-16 0.000000000000000000e+00 4.811135564659404105e-16 5.484819978302381050e-16 0.000000000000000000e+00 -2.835527805907427241e-15 -8.038451361321720123e-17 -7.239538639197978275e-16 0.000000000000000000e+00 0.000000000000000000e+00 0.000000000000000000e+00 0.000000000000000000e+00 -4.739464454007874776e-15 -2.874005243395067618e-14 0.000000000000000000e+00 -1.768377668574784703e-15 -9.341431309957914052e-17 -2.835527805907427241e-15 -8.038451361321720123e-17 -7.239538639197978275e-16 0.000000000000000000e+00 3.043123204396322072e-15 6.002945941586744992e-15 0.000000000000000000e+00 -2.965011621133631517e-15 -7.079136479692560330e-15 0.000000000000000000e+00 -2.452650935172173977e-15 -2.175291725890461040e-15 -2.835527805907427241e-15 -8.038451361321720123e-17 -7.239538639197978275e-16 0.000000000000000000e+00 0.000000000000000000e+00 0.000000000000000000e+00 0.000000000000000000e+00 2.749567897522898474e-15 -4.333695458800043387e-15 0.000000000000000000e+00 -1.201552137942310543e-15 -4.288976850385916577e-15 -2.835527805907427241e-15 -8.038451361321720123e-17 -7.239538639197978275e-16 0.000000000000000000e+00 0.000000000000000000e+00 0.000000000000000000e+00 0.000000000000000000e+00 7.584056077048790432e-17 -3.284238931108144953e-15 0.000000000000000000e+00 1.351589747046229246e-15 -5.228666171834945409e-15 9.930948787376263631e-01 3.445010875382623627e+00 9.731430326735901470e-02 6.527136811286462503e+00 9.266742782026765601e-01 -4.149953998396942900e+00 4.533724306733898857e+01 -3.076457773038535493e+01 5.201005133196972707e+01 -3.286755567082036755e+00 -2.233191879958025261e+00 3.726183061304031430e+00 0.000000000000000000e+00 0.000000000000000000e+00 0.000000000000000000e+00 4.243635687562309020e-15 1.377530467445382068e-15 0.000000000000000000e+00 9.812886282494492833e-16 -2.543576431599371762e-15 0.000000000000000000e+00 5.973735597482570631e-16 -4.832803838911206741e-16 -2.555508967096030813e-15 0.000000000000000000e+00 0.000000000000000000e+00 0.000000000000000000e+00 0.000000000000000000e+00 2.037638853387070462e-15 1.302211816672520982e-15 0.000000000000000000e+00 8.981560327909897934e-16 3.057632200011016784e-15 5.973735597482570631e-16 -4.832803838911206741e-16 -2.555508967096030813e-15 0.000000000000000000e+00 -1.322023321693000004e-16 -1.219822591307048938e-15 0.000000000000000000e+00 -6.717134203247182213e-16 5.705422660648228937e-15 0.000000000000000000e+00 1.533210383070665873e-16 2.568332751865742385e-15 5.973735597482570631e-16 -4.832803838911206741e-16 -2.555508967096030813e-15 0.000000000000000000e+00 0.000000000000000000e+00 0.000000000000000000e+00 0.000000000000000000e+00 -1.610556645000707704e-15 7.521065685655535074e-16 0.000000000000000000e+00 -1.941686619935025886e-15 1.810134187801275570e-15 5.973735597482570631e-16 -4.832803838911206741e-16 -2.555508967096030813e-15 0.000000000000000000e+00 0.000000000000000000e+00 0.000000000000000000e+00 0.000000000000000000e+00 3.629845606093758414e-15 4.413938105935892389e-15 0.000000000000000000e+00 -2.772291979327135932e-16 5.738267299993466408e-15
5.993800272924885348e+02 -4.186724022002553114e-01 -2.730570868082391023e+00 3.377225062964851698e+00 3.251760360263085126e+00 -1.168875453773608442e+01 7.956940635175483223e+00 -8.690152462336477868e+00 5.522138996267852207e+00 -1.874611285733756905e+00 1.324007215250981195e+00 1.777465365959046251e+00 -1.307727514828881610e+00 1.543385907912286914e+00 3.689260371821889262e+00 1.015646965112514444e+01 -3.774250593758479599e+00 7.431840535133419579e+00 -2.337324812172551614e+00 4.259041157100944552e+00 3.149117624407724580e+00 1.752819596693963866e-01 -2.038483720966722590e+00 3.265854064335556473e+00 -1.055157209515996009e+00 -2.115934414965142452e+00 -6.707849376390035978e+00 -2.706068601126639939e-01 -4.119918624565453436e-01 -1.785039581663775854e+00 -4.147222555625042495e-01 -6.392993620191055326e-01 -2.844378921667293003e+00 1.206271701057072543e-01 -3.902492789100866361e-02 5.538576811165085712e-01 -1.015875865064874706e-01 -4.779983579356691381e-01 4.880007609180718298e+00 7.122639772097651978e-01 -6.222697178935460149e-01 8.992197251675575487e+00 4.499201924555902288e+00 3.521415560225933383e-01 -3.044845480170114360e+00 -9.491050909994326545e+00 2.059779926878379186e+00 -8.139241648289591069e+00 -1.774859876539087722e+01 -2.760226272993363139e+01 -1.694574065476476221e+01 -8.013464503335502087e+00 -2.278819913819043030e+00 1.824383337980736819e+00 0.000000000000000000e+00 0.000000000000000000e+00 0.000000000000000000e+00 -3.043739033083541839e-14 -2.243742156153464780e-16 0.000000000000000000e+00 6.632177540473190790e-16 5.593439636534122746e-16 0.000000000000000000e+00 -2.666400174206315671e-15 -7.615345799700460244e-17 -6.942052059988443080e-16 0.000000000000000000e+00 0.000000000000000000e+00 0.000000000000000000e+00 0.000000000000000000e+00 -4.521448344277429088e-15 -2.786445007759473883e-14 0.000000000000000000e+00 -1.715167279542655049e-15 2.540759541951701021e-17 -2.666400174206315671e-15 -7.615345799700460244e-17 -6.942052059988443080e-16 0.000000000000000000e+00 3.047043093785191423e-15 6.223160771606091412e-15 0.000000000000000000e+00 -3.010260823495163789e-15 -6.900265365437800894e-15 0.000000000000000000e+00 -2.468022548600876843e-15 -1.915809609981735834e-15 -2.666400174206315671e-15 -7.615345799700460244e-17 -6.942052059988443080e-16 0.000000000000000000e+00 0.000000000000000000e+00 0.000000000000000000e+00 0.000000000000000000e+00 2.643568227148330152e-15 -4.495186762570818975e-15 0.000000000000000000e+00 -1.204143761029298207e-15 -4.113619122073767937e-15 -2.666400174206315671e-15 -7.615345799700460244e-17 -6.942052059988443080e-16 0.000000000000000000e+00 0.000000000000000000e+00 0.000000000000000000e+00 0.000000000000000000e+00 -2.071838975763667493e-17 -3.613995912524293268e-15 0.000000000000000000e+00 1.297363253073197229e-15 -4.948614690007223308e-15 1.005497894532758618e+00 3.395600416778312258e+00 1.737835868091373026e-01 6.336649596550105734e+00 9.891697486005230910e-01 -3.939473843413940468e+00 4.471492301628684629e+01 -3.048788906698363022e+01 5.179952723086050526e+01 -3.192500619627302250e+00 -2.296032768698337279e+00 3.882177289819151333e+00 0.000000000000000000e+00 0.000000000000000000e+00 0.000000000000000000e+00 4.508182429604635711e-15 1.269591092089987363e-15 0.000000000000000000e+00 9.919586365362899478e-16 -2.582780699629024359e-15 0.000000000000000000e+00 6.237317707218877554e-16 -4.447722125802050889e-16 -2.441753752686364052e-15 0.000000000000000000e+00 0.000000000000000000e+00 0.000000000000000000e+00 0.000000000000000000e+00 1.896742428951971948e-15 1.681597444108419956e-15 0.000000000000000000e+00 8.079137228937829632e-16 3.379533772229912982e-15 6.237317707218877554e-16 -4.447722125802050889e-16 -2.441753752686364052e-15 0.000000000000000000e+00 -2.015460082776085886e-16 -7.431425003334639544e-16 0.000000000000000000e+00 -7.754914126274815466e-16 5.905318888987292401e-15 0.000000000000000000e+00 5.523909357113565223e-17 2.926667616027245521e-15 6.237317707218877554e-16 -4.447722125802050889e-16 -2.441753752686364052e-15 0.000000000000000000e+00 0.000000000000000000e+00 0.000000000000000000e+00 0.000000000000000000e+00 -1.722631947515041796e-15 1.057335483414064534e-15 0.000000000000000000e+00 -2.023986337480589927e-15 1.988540084894568493e-15 6.237317707218877554e-16 -4.447722125802050889e-16 -2.441753752686364052e-15 0.000000000000000000e+00 0.000000000000000000e+00 0.000000000000000000e+00 0.000000000000000000e+00 3.620503531996399202e-15 4.623742400526031415e-15 0.000000000000000000e+00 -3.431231479341189002e-16 5.730492045183156329e-15
5.994136332399953062e+02 -4.050885595908513270e-01 -2.689471893852474427e+00 3.328807263996410359e+00 3.314381438735631402e+00 -1.123654097890127268e+01 7.563674836735506446e+00 -8.636205202155826655e+00 5.144298755916649313e+00 -1.794473874580183814e+00 1.380464202898507908e+00 1.676556592940176449e+00 -1.277613977041092586e+00 1.460001282783723875e+00 3.531423223453587834e+00 9.898068094252607807e+00 -3.902214056708131817e+00 7.149346015500428919e+00 -2.146530756316817889e+00 4.187697257120545302e+00 2.958501097608697172e+00 1.671792137293313940e-01 -1.932575432775876401e+00 3.175663966757348078e+00 -9.866549905550001665e-01 -2.017153257053205362e+00 -6.480809815249063632e+00 -2.539073662190272640e-01 -3.841432589048285884e-01 -1.727421176592979002e+00 -3.871885522453116790e-01 -5.918437822864963671e-01 -2.752637047397590742e+00 1.193150190210966466e-01 -3.833725960660044896e-02 5.313952801569362672e-01 -8.950099894309067328e-02 -4.127172814083084340e-01 4.375773856086683899e+00 6.923283748533941573e-01 -7.480820045396970874e-01 8.882147228519899684e+00 4.448445758199228273e+00 2.837506434734005656e-01 -2.949671623135688314e+00 -8.799199225330488261e+00 2.352490055692605608e+00 -7.542200517277775518e+00 -1.723162614746049925e+01 -2.747945957298900410e+01 -1.713781975548174685e+01 -7.818342774037311038e+00 -2.404811862154365709e+00 1.813911999041606826e+00 0.000000000000000000e+00 0.000000000000000000e+00 0.000000000000000000e+00 -2.910341114291028923e-14 -3.310922650583507676e-16 0.000000000000000000e+00 8.970090782247211140e-16 5.066622101164970356e-16 0.000000000000000000e+00 -2.503082645529615531e-15 -6.324776531920268024e-17 -6.430675880716369670e-16 0.000000000000000000e+00 0.000000000000000000e+00 0.000000000000000000e+00 0.000000000000000000e+00 -4.109047305506005829e-15 -2.611402231023937378e-14 0.000000000000000000e+00 -1.698846030771736027e-15 4.791925858068983385e-16 -2.503082645529615531e-15 -6.324776531920268024e-17 -6.430675880716369670e-16 0.000000000000000000e+00 3.102976532486429639e-15 6.583932409713256986e-15 0.000000000000000000e+00 -2.985057403672811842e-15 -6.375654387664056811e-15 0.000000000000000000e+00 -2.388017964373112819e-15 -1.405015143048515880e-15 -2.503082645529615531e-15 -6.324776531920268024e-17 -6.430675880716369670e-16 0.000000000000000000e+00 0.000000000000000000e+00 0.000000000000000000e+00 0.000000000000000000e+00 2.545640041041328815e-15 -4.579275523107453022e-15 0.000000000000000000e+00 -1.163149610213020102e-15 -3.700380408044100160e-15 -2.503082645529615531e-15 -6.324776531920268024e-17 -6.430675880716369670e-16 0.000000000000000000e+00 0.000000000000000000e+00 0.000000000000000000e+00 0.000000000000000000e+00 -1.019339841830548174e-16 -3.666186697863160720e-15 0.000000000000000000e+00 1.227492682207287702e-15 -4.394359122051798065e-15 1.022970903679950805e+00 3.358140788421689393e+00 2.492054505820269217e-01 6.147487852250953289e+00 1.055372269982291611e+00 -3.717850727587288073e+00 4.402745293714082919e+01 -3.007778103182939944e+01 5.151548872087461461e+01 -3.108782947466103952e+00 -2.378535271562923992e+00 4.021514467277876648e+00 0.000000000000000000e+00 0.000000000000000000e+00 0.000000000000000000e+00 4.743401641337364004e-15 1.191991220789301726e-15 0.000000000000000000e+00 9.328517406824311885e-16 -2.578806709700607950e-15 0.000000000000000000e+00 6.664731662572068188e-16 -4.215870371409979850e-16 -2.317631364883124641e-15 0.000000000000000000e+00 0.000000000000000000e+00 0.000000000000000000e+00 0.000000000000000000e+00 1.789898210871702425e-15 1.908987485289475214e-15 0.000000000000000000e+00 7.331972364069404918e-16 3.480693491469015127e-15 6.664731662572068188e-16 -4.215870371409979850e-16 -2.317631364883124641e-15 0.000000000000000000e+00 -2.719251511183503546e-16 -3.682092716702649617e-16 0.000000000000000000e+00 -8.727378815028493898e-16 5.987102789457503600e-15 0.000000000000000000e+00 3.254330384171955485e-17 3.130276863262410624e-15 6.664731662572068188e-16 -4.215870371409979850e-16 -2.317631364883124641e-15 0.000000000000000000e+00 0.000000000000000000e+00 0.000000000000000000e+00 0.000000000000000000e+00 -1.797135057930917195e-15 1.293126919414295956e-15 0.000000000000000000e+00 -2.081637234387868928e-15 1.981915059842402719e-15 6.664731662572068188e-16 -4.215870371409979850e-16 -2.317631364883124641e-15 0.000000000000000000e+00 0.000000000000000000e+00 0.000000000000000000e+00 0.000000000000000000e+00 3.557379217306910493e-15 4.701827572149105366e-15 0.000000000000000000e+00 -3.937635443302262918e-16 5.604476871585200684e-15
